<svg xmlns="http://www.w3.org/2000/svg" width="179" height="123" viewBox="0 0 179 123">
    <g fill="none" fill-rule="evenodd">
        <g fill="#FFCFCF">
            <g>
                <path d="M214.345 2.598c8.067 22.904 6.71 48.075-3.778 69.976-10.489 21.901-29.245 38.739-52.145 46.808-22.9 8.07-48.069 6.71-69.967-3.78-21.898-10.49-38.735-29.25-46.802-52.154L78.78 50.366c4.6 13.055 14.196 23.749 26.678 29.727 12.483 5.979 26.827 6.754 39.88 2.155 13.054-4.599 23.746-14.197 29.723-26.68 5.979-12.484 6.751-26.831 2.152-39.886l37.13-13.084z" transform="translate(-1061 -273) translate(1020 271)"/>
            </g>
        </g>
    </g>
</svg>
