<svg xmlns="http://www.w3.org/2000/svg" width="46" height="46" viewBox="0 0 46 46">
    <g fill="none" fill-rule="evenodd">
        <g fill="#FEFBF4">
            <g>
                <g>
                    <path d="M8.891 4.988L14.519 1.739 36.374 39.6 30.747 42.85z" transform="translate(-1074 -271) translate(1020 271) translate(54.429 .083)"/>
                    <path d="M40.194 8.402L43.442 14.03 5.586 35.89 2.337 30.262z" transform="translate(-1074 -271) translate(1020 271) translate(54.429 .083)"/>
                    <path d="M44.883 24.677L43.2 30.953 0.979 19.639 2.659 13.361z" transform="translate(-1074 -271) translate(1020 271) translate(54.429 .083)"/>
                    <path d="M44.883 24.677L43.2 30.953 0.979 19.639 2.659 13.361z" transform="translate(-1074 -271) translate(1020 271) translate(54.429 .083)"/>
                    <path d="M14.136 42.432L20.412 44.115 31.727 1.884 25.45 0.202z" transform="translate(-1074 -271) translate(1020 271) translate(54.429 .083)"/>
                </g>
            </g>
        </g>
    </g>
</svg>
