<svg xmlns="http://www.w3.org/2000/svg" width="105" height="24" viewBox="0 0 105 24">
    <g fill="none" fill-rule="evenodd">
        <g>
            <g>
                <path fill="#343A40" d="M65.016 2.82v6.585s1.176-.779 2.615-.779c3.222 0 5.922 2.107 5.922 7.332 0 4.323-2.853 7.041-7.582 7.041-2.34 0-4.602-.167-4.602-.167V2.82h3.647zM33.563 8.48c1.535-.424 3.183-.33 4.642.265.897.366 1.621.986 2.152 1.84l.134.215-2.59 2.128-.263-.329c-.254-.317-.572-.587-.947-.801-.355-.203-.804-.306-1.336-.306-.498 0-.87.04-1.222.242-.28.16-.46.422-.46.725 0 .25.07.435.221.58.203.197.45.357.734.48.305.132.635.232.98.297.389.074.72.138.995.193.563.136 1.092.3 1.579.49.516.204.97.472 1.35.799.39.339.7.754.921 1.236.221.485.333 1.068.333 1.744 0 .818-.18 1.532-.536 2.128-.349.582-.806 1.063-1.357 1.43-.543.36-1.165.624-1.85.783-.666.153-1.346.232-2.019.232-1.138 0-2.155-.179-3.025-.53-.895-.362-1.701-1.026-2.394-1.974l-.272-.372 2.567-2.11.312.315c.374.374.798.711 1.26 1 .412.26.935.392 1.552.392.28 0 .567-.03.852-.087.27-.054.51-.138.71-.25.186-.103.336-.233.45-.385.093-.127.137-.265.137-.436 0-.24-.067-.42-.208-.568-.182-.19-.406-.342-.663-.451-.292-.126-.606-.228-.934-.303-.352-.082-.663-.149-.933-.203-.556-.134-1.081-.286-1.574-.456-.523-.181-.99-.427-1.395-.73-.423-.317-.765-.722-1.02-1.206-.255-.49-.384-1.091-.384-1.79 0-.757.164-1.434.488-2.008.318-.564.745-1.037 1.27-1.407.51-.361 1.097-.634 1.743-.812zm24.554.285v14.082h-4.002V8.765h4.002zm24.592-.79c4.193 0 6.695 2.719 6.695 7.272v1.194h-9.47c.008 1.078.312 1.95.885 2.53.495.499 1.186.764 2 .764 1.41 0 2.313-.586 2.755-1.79l.028-.076h3.812l-.024.139c-.598 3.325-3.775 4.839-6.476 4.839-4.283 0-7.16-2.923-7.16-7.273 0-4.545 2.796-7.599 6.955-7.599zm15.58 0c4.192 0 6.695 2.719 6.695 7.272v1.194h-9.471c.008 1.077.313 1.95.886 2.53.494.499 1.185.764 2 .764 1.41 0 2.312-.586 2.754-1.79l.028-.077h3.812l-.024.14c-.598 3.324-3.775 4.839-6.476 4.839-4.282 0-7.16-2.923-7.16-7.273 0-4.545 2.796-7.599 6.956-7.599zm-51.73-2.63v3.404h4.622v3.096H46.56v6.003c0 .54.159.961.483 1.288.765.77 4.428.277 4.428.278v3.302s-1.863.131-3.843.115c-1.578-.013-2.83-.433-3.723-1.285-.894-.856-1.348-2.022-1.348-3.471V5.345h4.003zm20.224 6.88c-.881 0-1.498.327-1.85.71v7.145h1.34l.027.001h.124c.714-.016 3.336-.312 3.336-4.047 0-3.013-1.737-3.81-2.977-3.81zm15.926-1.235c-.758 0-1.426.27-1.932.78-.526.528-.834 1.276-.855 2.064h5.52c-.039-1.397-.772-2.844-2.733-2.844zm15.578 0c-.758 0-1.426.27-1.932.78-.526.528-.834 1.275-.855 2.064h5.52c-.04-1.397-.773-2.844-2.733-2.844zM56.115 2.667c1.26 0 2.282 1.02 2.282 2.278s-1.022 2.278-2.282 2.278-2.281-1.02-2.281-2.278 1.021-2.278 2.281-2.278z" transform="translate(-40 -20) translate(40 20)"/>
                <path fill="#FF5252" d="M12 0C5.372 0 0 5.372 0 12s5.372 12 12 12h12V12c0-6.628-5.372-12-12-12zM5.947 12.485l6.538-6.538 1.856 1.857-6.537 6.537-1.857-1.856zm5.568 5.568L9.66 16.197l6.538-6.538 1.856 1.856-6.538 6.538z" transform="translate(-40 -20) translate(40 20)"/>
            </g>
        </g>
    </g>
</svg>
